<svg width="1522" height="455" viewBox="0 0 1522 455" fill="none" xmlns="http://www.w3.org/2000/svg">
<path d="M589.362 336.624C573.808 336.624 559.252 333.787 545.589 328.111C531.926 322.436 520.155 314.396 510.329 303.991C500.45 293.587 493.093 281.238 488.206 267.05L530.455 248.079C536.656 261.637 545.274 272.252 556.256 280.029C567.239 287.806 579.378 291.695 592.725 291.695C599.82 291.695 605.915 290.592 611.012 288.384C616.11 286.177 620.103 283.13 622.994 279.241C625.884 275.352 627.303 270.728 627.303 265.421C627.303 259.64 625.516 254.701 621.995 250.602C618.422 246.503 612.904 243.245 605.337 240.775L556.729 224.8C536.971 218.389 522.1 209.193 512.115 197.317C502.131 185.441 497.139 171.2 497.139 154.542C497.139 139.881 500.765 127.007 507.964 115.919C515.163 104.831 525.253 96.1606 538.232 89.9598C551.212 83.7591 566.136 80.6587 583.004 80.6587C597.875 80.6587 611.643 83.2336 624.255 88.3308C636.919 93.4281 647.849 100.627 657.045 109.981C666.241 119.282 673.178 130.528 677.855 143.612L635.921 162.582C631.244 151.074 624.255 141.983 614.954 135.467C605.652 128.899 594.985 125.641 583.004 125.641C576.12 125.641 570.024 126.744 564.717 128.951C559.409 131.158 555.311 134.311 552.42 138.462C549.53 142.561 548.111 147.291 548.111 152.598C548.111 158.378 550.003 163.423 553.787 167.732C557.57 172.041 563.193 175.457 570.76 177.874L618.369 193.166C638.338 199.629 653.262 208.615 663.141 220.123C673.02 231.684 677.96 245.767 677.96 262.373C677.96 276.824 674.176 289.593 666.662 300.839C659.095 312.031 648.742 320.807 635.553 327.113C622.363 333.419 606.966 336.624 589.467 336.624H589.362Z" fill="white"/>
<path d="M710.855 332.631V80.6587H760.777V242.089L742.122 236.098L822.364 150.864H883.951L818.055 224.117L883.636 332.631H827.041L772.127 240.407L801.082 233.103L745.485 293.692L760.777 264.737V332.631H710.855Z" fill="white"/>
<path d="M905.917 134.574V84.6526H955.838V134.574H905.917ZM905.917 332.631V150.917H955.838V332.631H905.917Z" fill="white"/>
<path d="M992.465 332.631V80.6587H1042.39V332.631H992.465Z" fill="white"/>
<path d="M1135.87 332.631L1064.3 150.917H1118.21L1167.82 288.385H1147.17L1196.77 150.917H1250.69L1179.12 332.631H1135.87Z" fill="white"/>
<path d="M1337.92 336.625C1323.26 336.625 1310.81 333.472 1300.45 327.114C1290.15 320.808 1282.32 311.979 1277.02 300.629C1271.71 289.331 1269.03 276.089 1269.03 261.007V150.812H1318.95V257.013C1318.95 263.897 1320.32 269.94 1323.1 275.143C1325.89 280.345 1329.83 284.391 1334.93 287.281C1340.02 290.172 1345.8 291.59 1352.21 291.59C1358.63 291.59 1364.72 290.172 1369.71 287.281C1374.71 284.391 1378.59 280.345 1381.38 275.143C1384.16 269.94 1385.53 263.897 1385.53 257.013V150.812H1435.45V332.526H1388.84V296.583L1391.52 304.57C1387.32 315.448 1380.49 323.488 1371.03 328.69C1361.57 333.892 1350.53 336.52 1337.92 336.52V336.625Z" fill="white"/>
<path d="M1472.08 332.631V80.6587H1522V332.631H1472.08Z" fill="white"/>
<path d="M397.769 201.154C397.769 163.476 397.769 125.799 397.769 88.1211C397.769 81.9204 395.299 77.5063 389.992 74.511C382.32 70.1494 374.7 65.6828 367.186 61.0585C361.51 57.5902 356.203 57.6953 350.58 61.2161C340.386 67.5745 329.928 73.46 319.787 79.9235C316.476 82.0255 314.111 81.8153 310.853 79.9235C280.27 61.6891 249.581 43.7173 218.998 25.5354C213.48 22.2248 208.33 22.1723 202.76 25.4303C145.745 59.1667 88.624 92.798 31.5559 126.482C26.3536 129.582 23.8312 133.891 23.8312 140.145C23.8838 198.264 23.8838 256.435 23.8312 314.554C23.8312 320.492 26.2485 324.591 31.1881 327.481C88.1511 361.06 145.062 394.639 202.025 428.218C203.181 428.901 204.232 429.584 205.44 430.109C210.432 432.421 214.846 430.95 219.313 428.323C275.698 395.007 332.136 361.638 388.678 328.48C395.037 324.749 397.822 319.914 397.769 312.4C397.611 275.3 397.717 238.253 397.717 201.154H397.769Z" stroke="white" stroke-width="44" stroke-miterlimit="10"/>
<path fill-rule="evenodd" clip-rule="evenodd" d="M291.095 202.468C291.883 207.933 295.404 218.023 297.506 220.703C300.922 218.128 304.285 215.553 308.278 212.558C302.183 208.984 296.823 205.831 291.095 202.468ZM275.961 193.482C269.813 189.856 264.453 186.704 259.145 183.551C258.882 183.813 258.672 184.024 258.41 184.286C260.354 190.014 262.298 195.742 264.453 202.153C268.341 199.21 271.862 196.583 275.961 193.482ZM310.223 140.618C310.223 135.048 310.17 130.634 310.223 126.272C310.223 124.275 309.067 123.435 307.648 122.594C302.918 119.809 298.189 117.024 293.46 114.239C289.518 111.926 285.525 109.614 281.531 107.25C277.012 109.93 272.755 112.557 267.763 115.552C282.109 124.013 295.719 132.053 310.223 140.618ZM326.618 97.7908C330.822 101.417 375.961 127.691 378.957 128.374C379.062 127.954 379.272 127.534 379.272 127.113C379.272 115.5 379.272 103.834 379.377 92.2207C379.377 90.2763 378.431 89.3304 376.96 88.4897C371.968 85.5995 366.923 82.7093 362.036 79.6089C359.934 78.2952 358.357 78.2426 356.15 79.6089C347.165 85.1791 338.074 90.5391 329.035 96.0042C328.194 96.5296 327.459 97.1602 326.618 97.7908ZM216.528 45.7674C216.318 47.1337 216.108 47.7117 216.108 48.2898C216.108 59.5878 216.108 70.9383 216.055 82.2889C216.055 84.5485 217.001 85.652 218.788 86.7556C229.035 92.6936 239.229 98.7893 249.424 104.832C252.051 106.356 254.626 107.88 257.306 109.404C264.137 105.305 270.864 101.312 277.485 97.2128C280.112 95.5838 282.529 95.5312 285.209 97.1077C295.772 103.361 306.387 109.667 317.002 115.815C319.682 117.392 320.785 119.599 320.732 122.699C320.627 127.271 320.732 131.79 320.732 136.362C320.732 137.465 320.943 138.569 321.153 140.25C330.401 134.733 339.23 129.53 348.531 123.697C304.18 97.5281 260.669 71.8317 216.528 45.7674ZM42.4336 181.291C97.2421 148.973 151.262 117.076 205.125 85.2842C205.913 78.7681 205.65 49.5509 204.757 46.1878C203.601 46.8184 202.445 47.2913 201.341 47.9745C149.371 78.6105 97.4523 109.299 45.4814 139.882C43.0642 141.301 42.0132 142.773 42.0658 145.715C42.2234 156.173 42.1183 166.63 42.1709 177.035C42.1709 178.138 42.3285 179.294 42.4862 181.291H42.4336ZM42.1183 305.832C44.2203 304.728 45.4814 304.15 46.6901 303.467C51.5771 300.577 56.4116 297.739 61.2461 294.849C108.067 267.208 154.888 239.515 201.762 211.98C204.442 210.403 205.598 208.774 205.545 205.516C205.388 192.011 205.493 178.453 205.44 164.896C205.44 163.529 205.283 162.111 205.178 160.166C203.286 161.165 201.919 161.848 200.606 162.636C188.992 169.468 177.432 176.299 165.871 183.13C125.986 206.62 86.1543 230.214 46.2697 253.598C43.1167 255.49 41.9607 257.487 42.0132 261.218C42.2234 274.145 42.1183 287.124 42.1183 300.051C42.1183 301.628 42.1183 303.257 42.1183 305.832ZM42.1183 243.456C44.0101 242.51 45.1661 241.985 46.2697 241.354C98.2931 210.666 150.369 179.925 202.445 149.236C204.81 147.87 205.545 146.293 205.493 143.666C205.388 129.688 205.493 115.71 205.493 101.732C205.493 100.628 205.283 99.5249 205.178 97.9485C203.654 98.6841 202.498 99.2096 201.447 99.8402C197.085 102.363 192.723 104.99 188.362 107.565C140.91 135.573 93.5111 163.582 45.9544 191.485C43.0642 193.167 42.0132 195.006 42.0658 198.422C42.276 211.822 42.1709 225.222 42.1709 238.569V243.456H42.1183ZM216.108 97.6857V102.993C216.108 116.235 216.265 129.478 216.003 142.72C215.95 146.346 217.264 148.185 220.206 149.919C251.788 168.417 283.318 187.071 314.794 205.621C316.056 206.357 317.369 206.987 318.473 207.933C321.889 210.771 321.153 215.238 317.159 217.182C314.742 218.338 312.325 219.704 310.118 221.228C306.176 223.961 302.445 226.956 298.609 229.794C294.3 232.894 292.356 232.316 290.622 227.271C287.837 219.231 285.157 211.139 282.372 203.099C282.004 202.1 281.478 201.102 280.9 199.946C279.271 201.102 277.958 201.995 276.697 202.941C272.966 205.726 269.34 208.564 265.556 211.296C262.298 213.609 259.986 212.82 258.515 209.037C258.252 208.354 258.094 207.671 257.831 206.935C255.046 198.58 252.156 190.277 249.424 181.922C248.741 179.872 247.795 178.348 245.85 177.245C236.97 172.095 228.141 166.84 219.261 161.638C218.472 161.165 217.526 160.955 216.37 160.534C216.265 162.058 216.16 163.267 216.16 164.423C216.16 178.243 216.265 192.116 216.055 205.936C216.055 208.879 217.001 210.403 219.418 211.822C271.284 242.353 323.097 272.936 374.963 303.52C376.172 304.255 377.433 304.833 378.957 305.622C379.114 304.255 379.325 303.415 379.325 302.574C379.325 250.025 379.325 197.476 379.325 144.927C379.325 142.72 378.589 141.406 376.75 140.355C371.968 137.675 367.186 134.943 362.561 132C360.039 130.371 358.147 130.371 355.52 132C344.064 139.094 332.398 145.768 320.995 152.967C317.054 155.437 313.954 155.49 309.907 153.072C280.375 135.416 250.685 117.97 220.995 100.471C219.628 99.6826 218.262 98.9469 216.055 97.7908L216.108 97.6857ZM397.769 201.154C397.769 238.254 397.664 275.301 397.822 312.4C397.822 319.862 395.089 324.749 388.731 328.48C332.188 361.639 275.803 395.007 219.366 428.323C214.899 431.003 210.432 432.422 205.493 430.11C204.337 429.584 203.233 428.849 202.077 428.218C145.114 394.639 88.2037 361.008 31.2407 327.482C26.3011 324.539 23.8839 320.493 23.8839 314.555C23.8839 256.436 23.8839 198.317 23.8839 140.145C23.8839 133.892 26.3536 129.53 31.6085 126.483C88.6766 92.8512 145.797 59.1674 202.813 25.431C208.383 22.1204 213.48 22.2255 219.05 25.5361C249.634 43.718 280.375 61.6897 310.906 79.9242C314.164 81.8685 316.529 82.0787 319.839 79.9242C329.981 73.4607 340.438 67.5752 350.633 61.2168C356.256 57.696 361.563 57.5909 367.238 61.0592C374.753 65.6835 382.372 70.1501 390.044 74.5117C395.404 77.507 397.874 81.9211 397.822 88.1218C397.769 125.799 397.822 163.477 397.822 201.154H397.769Z" fill="#12132A"/>
<path fill-rule="evenodd" clip-rule="evenodd" d="M216.108 97.6858C218.315 98.8944 219.733 99.5776 221.047 100.366C250.685 117.865 280.375 135.258 309.96 152.915C314.006 155.332 317.107 155.332 321.048 152.81C332.451 145.663 344.117 138.937 355.572 131.843C358.147 130.214 360.092 130.214 362.561 131.843C367.186 134.838 371.968 137.518 376.75 140.198C378.589 141.249 379.324 142.563 379.324 144.77C379.324 197.318 379.324 249.867 379.324 302.416C379.324 303.257 379.114 304.098 378.957 305.464C377.433 304.676 376.119 304.098 374.963 303.362C323.097 272.779 271.284 242.195 219.418 211.664C217.001 210.246 216.003 208.669 216.055 205.779C216.213 191.958 216.108 178.086 216.16 164.265C216.16 163.109 216.265 161.953 216.37 160.429C217.526 160.85 218.42 161.06 219.261 161.533C228.141 166.735 236.917 172.042 245.85 177.14C247.795 178.243 248.74 179.82 249.424 181.817C252.156 190.172 255.046 198.475 257.831 206.83C258.042 207.513 258.252 208.249 258.515 208.932C260.038 212.715 262.298 213.504 265.556 211.191C269.34 208.511 273.018 205.621 276.696 202.836C277.958 201.89 279.271 200.997 280.9 199.841C281.478 201.049 282.004 201.995 282.372 202.994C285.104 211.034 287.837 219.126 290.622 227.166C292.356 232.211 294.353 232.842 298.609 229.741C302.498 226.904 306.229 223.908 310.118 221.176C312.325 219.599 314.742 218.285 317.159 217.129C321.153 215.238 321.888 210.718 318.473 207.881C317.369 206.987 316.056 206.304 314.794 205.569C283.265 186.966 251.736 168.364 220.206 149.867C217.264 148.133 215.95 146.294 216.002 142.668C216.213 129.425 216.108 116.183 216.108 102.941C216.108 101.522 216.108 100.05 216.108 97.6858Z" fill="#EE393A"/>
<path fill-rule="evenodd" clip-rule="evenodd" d="M42.1706 243.403V238.516C42.1706 225.116 42.2757 211.716 42.0656 198.368C42.0656 194.953 43.064 193.114 45.9542 191.432C93.4584 163.529 140.91 135.52 188.362 107.511C192.723 104.937 197.085 102.362 201.446 99.7868C202.55 99.1562 203.706 98.6307 205.177 97.895C205.335 99.4189 205.493 100.522 205.493 101.679C205.493 115.657 205.493 129.635 205.493 143.613C205.493 146.24 204.757 147.816 202.445 149.183C150.369 179.819 98.2928 210.56 46.2695 241.301C45.1659 241.932 44.0624 242.404 42.1181 243.403H42.1706Z" fill="#EE393A"/>
<path fill-rule="evenodd" clip-rule="evenodd" d="M42.1708 305.779V299.998C42.1708 287.071 42.3285 274.092 42.0657 261.165C42.0132 257.434 43.1167 255.437 46.3222 253.545C86.2594 230.161 126.091 206.619 165.923 183.077C177.484 176.246 189.098 169.362 200.658 162.583C202.025 161.795 203.391 161.112 205.23 160.113C205.335 162.058 205.493 163.424 205.493 164.843C205.493 178.4 205.388 191.905 205.598 205.463C205.598 208.721 204.442 210.403 201.814 211.926C154.941 239.462 108.12 267.155 61.2986 294.796C56.4641 297.686 51.6296 300.524 46.7426 303.414C45.534 304.097 44.2728 304.675 42.1708 305.779Z" fill="#EE393A"/>
<path fill-rule="evenodd" clip-rule="evenodd" d="M42.4859 181.238C42.3283 179.189 42.1706 178.085 42.1706 176.982C42.1706 166.524 42.2757 156.067 42.0656 145.663C42.0656 142.72 43.1165 141.248 45.4812 139.83C97.4521 109.246 149.37 78.5577 201.341 47.9217C202.445 47.2911 203.548 46.7656 204.757 46.135C205.65 49.4981 205.913 78.7153 205.125 85.2314C151.262 117.023 97.2419 148.921 42.4334 181.238H42.4859Z" fill="#801823"/>
<path fill-rule="evenodd" clip-rule="evenodd" d="M216.528 45.7144C260.669 71.7786 304.232 97.475 348.531 123.644C339.23 129.425 330.454 134.68 321.153 140.197C320.943 138.516 320.785 137.412 320.733 136.309C320.733 131.737 320.627 127.218 320.733 122.646C320.785 119.546 319.734 117.338 317.002 115.762C306.387 109.561 295.824 103.308 285.209 97.0546C282.582 95.4782 280.112 95.5833 277.485 97.1597C270.811 101.259 264.137 105.252 257.306 109.351C254.626 107.775 251.999 106.303 249.424 104.779C239.229 98.7362 229.035 92.6931 218.788 86.7025C216.948 85.6515 216.055 84.4954 216.055 82.2358C216.16 70.8853 216.055 59.5873 216.055 48.2367C216.055 47.6587 216.213 47.0806 216.476 45.7144H216.528Z" fill="#801823"/>
<path fill-rule="evenodd" clip-rule="evenodd" d="M326.618 97.738C327.459 97.1075 328.194 96.4769 329.035 95.9514C338.074 90.4863 347.164 85.1263 356.15 79.5561C358.305 78.1898 359.881 78.2424 362.036 79.5561C366.923 82.6565 371.968 85.4941 376.96 88.4369C378.431 89.2777 379.377 90.2235 379.377 92.1679C379.272 103.781 379.324 115.394 379.272 127.06C379.272 127.481 379.062 127.901 378.957 128.321C375.961 127.691 330.874 101.364 326.618 97.738Z" fill="#801823"/>
<path fill-rule="evenodd" clip-rule="evenodd" d="M310.223 140.618C295.719 132.052 282.109 124.012 267.763 115.552C272.755 112.556 277.012 109.929 281.531 107.249C285.525 109.614 289.518 111.926 293.459 114.238C298.189 117.023 302.918 119.808 307.648 122.593C309.067 123.434 310.275 124.222 310.223 126.272C310.117 130.686 310.223 135.047 310.223 140.618Z" fill="white"/>
<path fill-rule="evenodd" clip-rule="evenodd" d="M275.961 193.482C271.862 196.582 268.341 199.262 264.453 202.152C262.298 195.741 260.354 190.013 258.41 184.285C258.672 184.023 258.882 183.813 259.145 183.55C264.505 186.703 269.813 189.856 275.961 193.482Z" fill="white"/>
<path fill-rule="evenodd" clip-rule="evenodd" d="M291.095 202.468C296.823 205.831 302.183 208.984 308.278 212.558C304.285 215.605 300.921 218.128 297.506 220.703C295.456 218.023 291.883 207.933 291.095 202.468Z" fill="white"/>
<path d="M49.4751 317.498L210.117 218.496L374.122 317.498L210.117 408.985L49.4751 317.498Z" fill="#88181A"/>
</svg>
